<?xml version="1.0" encoding="utf-8"?>
<!-- Generator: Adobe Illustrator 21.0.0, SVG Export Plug-In . SVG Version: 6.00 Build 0)  -->
<svg version="1.1" id="Layer_1" xmlns="http://www.w3.org/2000/svg" xmlns:xlink="http://www.w3.org/1999/xlink" x="0px" y="0px"
	 viewBox="0 0 640 350" style="enable-background:new 0 0 640 350;" xml:space="preserve">
<style type="text/css">
	.st0{fill:#50BD37;}
	.st1{fill:#333333;}
	.st2{fill:#999999;}
</style>
<path class="st0" d="M630.8,245.8c-1.3,0-2.2-1-2.2-2.2c0-1.3,0.9-2.2,2.2-2.2c1.3,0,2.2,1,2.2,2.2
	C633,244.8,632.1,245.8,630.8,245.8z M630.8,239.1c-2.6,0-4.4,1.9-4.4,4.4c0,2.5,1.8,4.4,4.4,4.4c2.6,0,4.4-1.9,4.4-4.4
	C635.2,241,633.4,239.1,630.8,239.1z M630.8,250.3c-3.9,0-6.7-2.9-6.7-6.7c0-3.9,2.8-6.7,6.7-6.7c4,0,6.7,2.9,6.7,6.7
	C637.5,247.4,634.7,250.3,630.8,250.3z M630.8,234.3c-5.4,0-9.2,3.9-9.2,9.2c0,5.3,3.8,9.2,9.2,9.2c5.4,0,9.2-3.9,9.2-9.2
	C640,238.3,636.2,234.3,630.8,234.3z M566.4,250.8l-2.8-0.7c-2.5-0.6-3.8-1.2-3.8-3c0-2.1,2.1-2.9,4-2.9c1.9,0,3.3,1,4.2,2.5
	c0,0,0,0,0,0c0,0,0,0.1,0.1,0.1l0,0c0.3,0.4,0.7,0.7,1.2,0.7c0.8,0,1.4-0.6,1.4-1.4c0-0.3-0.1-0.6-0.2-0.9c-1.4-2.4-3.7-3.4-6.4-3.4
	c-3.6,0-7.1,1.8-7.1,5.8c0,3.7,3.6,4.7,4.9,5.1l2.6,0.6c2,0.5,3.7,1.2,3.7,3.1c0,2.2-2.3,3.1-4.5,3.1c-2.3,0-3.9-1.2-5.1-2.9h0
	c-0.3-0.4-0.7-0.6-1.1-0.6c-0.8,0-1.4,0.7-1.4,1.5c0,0.3,0.1,0.6,0.3,0.8c1.8,2.7,4.4,3.7,7.3,3.7c3.7,0,7.5-1.7,7.5-5.9
	C571.1,253.4,569.1,251.4,566.4,250.8z M584.8,259.5c-4.4,0-7.2-3.3-7.2-7.7c0-4.3,2.8-7.7,7.2-7.7c4.5,0,7.3,3.3,7.3,7.7
	C592.1,256.2,589.3,259.5,584.8,259.5z M584.8,241.7c-6,0-10.2,4.3-10.2,10.1c0,5.8,4.2,10.1,10.2,10.1c6,0,10.3-4.3,10.3-10.1
	C595.1,246.1,590.8,241.7,584.8,241.7z M613.7,257.4c-0.1,0.1-0.2,0.2-0.3,0.3c-0.1,0.1-0.3,0.3-0.5,0.4c-1.2,0.8-2.6,1.3-4.3,1.3
	c-4.4,0-7.2-3.3-7.2-7.7c0-4.3,2.8-7.7,7.2-7.7c4.5,0,7.3,3.3,7.3,7.7C615.9,254.1,615.1,256,613.7,257.4z M607.1,268.4
	c0.3,0,0.7,0,1-0.1c0.7-0.1,1.3-0.1,1.8-0.1c2.5,0,3.8,0.7,4.6,1.6c0.8,0.9,1.1,2,1.1,3c0,0.5-0.1,0.9-0.2,1.1
	c-0.4,1.2-1.2,2-2.4,2.6c-1.2,0.6-2.8,0.9-4.4,0.9c-0.6,0-1.2,0-1.8-0.1c-1.1-0.1-2.6-0.6-3.7-1.5c-0.5-0.4-0.8-0.9-1.2-1.5
	c-0.3-0.6-0.4-1.3-0.4-2.2v-0.1c0-1.6,0.6-2.7,1.5-3.5c0.4-0.4,0.7-0.7,1-0.8c0,0,0.1-0.1,0.1-0.1C605,268.2,606,268.4,607.1,268.4z
	 M608.6,241.7c-6,0-10.2,4.3-10.2,10.1c0,3.9,1.9,7.2,5,8.9c0,0-0.1,0.1-0.1,0.1c-0.8,0.9-1.2,2-1.2,3.1c0,0.5,0.1,1,0.3,1.5
	c-0.4,0.3-0.9,0.6-1.4,1.1c-1.2,1.1-2.5,3-2.5,5.5c0,0.1,0,0.1,0,0.1c0,1.3,0.3,2.5,0.8,3.5c0.8,1.5,2.1,2.6,3.4,3.3
	c1.3,0.7,2.7,1.1,3.8,1.2c0.7,0.1,1.4,0.1,2.1,0.1c2,0,4-0.3,5.7-1.2c1.7-0.8,3.2-2.3,3.8-4.3c0.2-0.6,0.3-1.3,0.3-2
	c0-1.5-0.4-3.4-1.8-4.9c-1.4-1.5-3.6-2.6-6.7-2.6c-0.7,0-1.4,0-2.2,0.1c-0.2,0-0.5,0-0.7,0c-1,0-1.4-0.3-1.7-0.5
	c-0.3-0.3-0.4-0.6-0.4-1.1c0-0.4,0.2-0.9,0.5-1.2c0.3-0.3,0.7-0.5,1.3-0.5c0.1,0,0.1,0,0.2,0c0.4,0,0.8,0,1.2,0c3.2,0,5.6-1,7.2-2.3
	c1.6-1.4,2.5-3,2.9-4.3l0,0c0.4-1.2,0.7-2.5,0.7-3.8C618.8,246,614.6,241.7,608.6,241.7z"/>
<g>
	<g>
		<path class="st1" d="M47.4,115.7c5.9,0,11.5-2.4,15.7-6.7c4.2-4.3,6.5-10,6.5-16.1c0-6.1-2.3-11.8-6.5-16.1
			c-4.2-4.3-9.8-6.7-15.7-6.7c-5.9,0-11.5,2.4-15.7,6.7c-4.2,4.3-6.5,10-6.5,16.1c0,6.1,2.3,11.8,6.5,16.1
			C35.9,113.4,41.4,115.7,47.4,115.7z M42.8,88.3c1.2-1.3,2.9-2,4.6-2c1.7,0,3.4,0.7,4.6,2c1.2,1.3,1.9,2.9,1.9,4.7
			c0,1.8-0.7,3.5-1.9,4.7c-1.2,1.3-2.9,2-4.6,2c-1.7,0-3.4-0.7-4.6-2c-1.2-1.3-1.9-2.9-1.9-4.7C40.8,91.2,41.5,89.5,42.8,88.3z
			 M91.8,106.8c-4.3-3.1-10.4-2.1-13.4,2.3c-3.8,5.5-8,9.5-12.7,12.3c-0.4,0.3-0.9,0.5-1.3,0.7c-0.4,0.2-0.8,0.4-1.3,0.6
			c-4.4,2.1-9.4,3.2-15.1,3.4c-5.7-0.2-10.7-1.3-15.1-3.4c-5.9-2.8-10.9-7.2-15.3-13.7c-3.1-4.4-9.1-5.5-13.4-2.3
			c-4.3,3.1-5.4,9.3-2.3,13.7c6.4,9.2,14.1,16,22.9,20.2c1.7,0.8,3.5,1.6,5.3,2.2c-7.5,5.6-15.7,13.3-19.6,24
			c-4,11.1-4,23.1,0.1,33.8c4,10.3,11.3,18.6,20.7,23.5c10.4,5.5,23.7,5.5,35.6,0c12.4-5.7,20.5-16.2,21.7-28
			c1.2-12.4-4.6-23.5-14.8-28.2c-10.6-4.9-22.5-1.4-30.4,8.8c-3.3,4.3-2.6,10.5,1.6,13.8c4.2,3.4,10.2,2.6,13.5-1.6
			c2.3-3,5.1-4.2,7.4-3.1c2,0.9,4,3.6,3.6,8.3c-0.5,4.6-4.4,9.2-10.4,11.9c-6.4,3-13.7,3.1-18.9,0.4c-5.2-2.7-9.3-7.4-11.5-13.2
			c-1.7-4.4-3.1-11.3,0-19.6c2.3-6.3,8-12.2,18.1-18.6c4.3-2.7,8.9-5.3,13.3-7.7c5.1-2.8,10-5.5,14.2-8.4
			c7.6-4.2,14.2-10.5,19.9-18.6C97.1,116.1,96.1,110,91.8,106.8z M184.9,112.5c-2.8-0.7-6.1-1.2-8.2-1.2c-16.1,0-27.3,8.2-27.3,28.1
			c0,9.6,2.5,17.8,10,22.3c-4.8,3.6-10.2,9.7-10.4,13.6c-0.2,3.9,3.6,6.6,9.9,8.2c-6.9,4.2-12.3,10.2-12.3,17.3
			c0,7.8,4.3,17,26.5,17c21.9,0,31.4-11.7,31.4-24.5c0-11.8-9.9-16.1-20.4-17.5c-12.3-1.5-20.7-1.9-20.7-4.5c0-2.1,2.1-4.6,4.3-6.7
			c2.1,0.4,4.6,0.6,7.4,0.6c19.1,0,26.6-10.3,26.6-26.2c0-7.5-2.5-13.2-6.4-16.9c2.3,0.5,4.3,0.7,6.1,0.7c2.8,0,4.6-1.5,4.6-4.8
			c0-2.7-0.7-4.6-1.3-5.7H184.9z M169.1,185.1c1,0.1,2,0.3,3.1,0.3c14.5,0.9,18.7,2.8,18.7,9.6c0,5.2-5.1,11.5-16.8,11.5
			c-11.2,0-13.8-3.7-13.8-8.5C160.4,193.2,164.3,188.3,169.1,185.1z M175.7,156c-10.2,0-12.2-6.7-12.2-17.5
			c0-13.2,5.6-18.2,12.7-18.2c7.9,0,12,4.6,12,15.5C188.2,148.8,184.4,156,175.7,156z M245,111.3c-15.3,0-26.3,1.9-28.8,3.6
			c-1.1,0.7-1.5,2.2-1.5,3.9c0,1,0.2,5.2,1.8,7.8c5.1-2.1,15.8-3.4,23.2-3.4c5.1,0,8.7,1.8,8.7,8.8v12.6c-3.3-1.5-8.4-1.9-12.5-1.9
			c-10.5,0-21.4,3.7-21.4,24.5c0,22.7,11.5,23.6,23.5,23.5c10.7,0,18.4-2.4,22.8-4.9c0,0,1-21.2,1-47.4v-8.7
			C261.9,116.1,255.6,111.3,245,111.3z M247.9,178c-1.5,1.5-5.6,2.4-8.9,2.4c-6.4,0-10.5-0.6-10.5-13.5c0-13.2,5.6-15.2,12.2-15.2
			c2.3,0,5.6,0.3,7.7,1.3C248.4,163.8,247.9,178,247.9,178z M328.6,138.8c0-20.6-2.1-27.5-22-27.5c-8.9,0-20.7,2.2-27.1,4.9v72
			c13.6,0,13.3,0,13.3-2.5v-61c3.6-2.1,8.7-2.8,12.3-2.8c8.7,0,9.7,4.5,9.7,16.3v50.1c14,0,13.8,0,13.8-2.5V138.8z M379.3,84v30.3
			c-2.8-1.8-6.6-3-11.7-3c-14.1,0-25.3,12.7-25.3,42.3c0,32.4,11.2,36.9,26.8,36.9c10.2,0,17.9-1.5,23.5-4.5V78.4
			C381.7,78.4,379.3,78.4,379.3,84z M379.3,177.4c-2.6,1.6-6.1,2.2-9.7,2.2c-7.7,0-12.3-3.3-12.3-27.3c0-24.5,7.2-30.3,14.5-30.3
			c3.4,0,5.4,0.4,7.6,1.9V177.4z M410.3,119.1v69.2c13.5,0,13.6,0,13.6-2.5v-72.2C413.1,113.6,410.3,113.6,410.3,119.1z M417.7,78.9
			c-5.3,0-7.6,3.6-7.6,9c-0.2,7,2.5,9.3,6.7,9.4c4.9,0,7.4-3.6,7.6-9.7C424.4,81.3,422.8,78.9,417.7,78.9z M450.7,172.4
			c-5.3,0-8.3,4-8.3,8.7c0,5.2,2.1,8.5,8.3,8.5c5.2,0,8.3-3.9,8.3-8.5C459,175.9,456.8,172.4,450.7,172.4z M525,138.8
			c0-20.6-2.1-27.5-22-27.5c-8.9,0-20.7,2.2-27.1,4.9v72c13.6,0,13.3,0,13.3-2.5v-61c3.6-2.1,8.7-2.8,12.3-2.8
			c8.7,0,9.7,4.5,9.7,16.3v50.1c14,0,13.8,0,13.8-2.5V138.8z M588.6,135.8c0-16-7.1-24.5-20.9-24.5c-14.6,0-29.1,4.6-29.1,43.5
			c0,30.5,11,35.7,26.3,35.7c12.3,0,22.7-3.6,22.7-5.7c0-3.3-0.3-8.5-1.1-10.8c-5.6,2.8-12.2,4.6-20,4.6c-8.9,0-13.5-2.7-14-20.8
			c7.9,0,23-0.3,34.3-2.4C588.1,150.2,588.6,142.6,588.6,135.8z M574.8,146.4c-5.7,1.5-15.9,1.8-22.3,1.6c1-20.8,7.1-26.2,13.8-26.2
			c7.1,0,9.2,4.5,9.4,15.2C575.6,140,575.4,143.7,574.8,146.4z M629.1,180.2c-5.9,0-5.9-5.4-5.9-11.8V124h14.1c2.6,0,2.6-1,2.6-10.5
			h-16.8V86.7c-10.8,0-13.3,0-13.3,4.2v22.7h-8.4c-2.8,0-3,1.2-3,10.5h11.3v43c0,13.4,0,23.6,15.6,23.6c6.4,0,14.1-1.2,14.1-4.8
			c0-3-0.5-6.3-1-7.9C635.2,179.3,633.8,180.2,629.1,180.2z"/>
	</g>
</g>
<g>
	<path class="st2" d="M173.2,261.8l-7.2-22.5l-7.3,22.5h-3.1l-8.9-26.7h3.3l7.3,23.2l7.3-23.1l3.1,0l7.3,23.2l7.3-23.2h3.2l-9,26.7
		H173.2z"/>
	<path class="st2" d="M204.3,252.9h-16.4c0.5,3.9,3.4,6.4,7.3,6.4c2.5,0,4.7-0.9,6.2-2.5l1.6,1.8c-1.9,2.1-4.7,3.4-8.1,3.4
		c-5.9,0-10-4.2-10-10.2c0-6,4.1-10.2,10-10.2C201.4,241.6,204.6,246.1,204.3,252.9z M201.6,250.5c-0.2-3.9-2.8-6.3-6.7-6.3
		c-3.8,0-6.6,2.5-7,6.3H201.6z"/>
	<path class="st2" d="M230,251.8c0,6-3.9,10.1-9.6,10.1c-3.6,0-6.3-1.6-7.8-4.4v4.3h-3v-28.3h3V246c1.5-2.8,4.2-4.5,7.8-4.5
		C226,241.6,230,245.8,230,251.8z M227,251.7c0-4.3-3-7.5-7.2-7.5c-4.2,0-7.2,3.1-7.2,7.5c0,4.4,3,7.5,7.2,7.5
		C224,259.2,227,256.1,227,251.7z"/>
	<path class="st2" d="M268.5,249.4v12.4h-3v-11.6c0-3.6-2.1-5.7-5.6-5.7c-4.2,0.1-6.6,3.1-6.6,7.4v9.9h-3v-11.6
		c0-3.6-2.1-5.7-5.6-5.7c-4.1,0.1-6.6,3.1-6.6,7.4v9.9h-2.9v-20.1h2.9v4.5c1.3-3.1,4-4.6,7.7-4.7c3.8,0,6.4,1.9,7.2,5.3
		c1.3-3.6,4.1-5.2,7.9-5.3C265.7,241.6,268.5,244.5,268.5,249.4z"/>
	<path class="st2" d="M287.6,258.7c-1.6,2.2-4.2,3.2-7.4,3.2c-4.2,0-6.8-2.7-6.8-6.1c0-3.5,2.8-5.7,7.5-5.8h6.6v-1.2
		c0-2.9-1.8-4.7-5.4-4.7c-2.2,0-4.3,0.8-6.4,2.3l-1.3-2.2c2.6-1.7,4.8-2.7,8.2-2.7c5,0,7.7,2.6,7.8,7l0,13.3h-2.9V258.7z
		 M287.6,254.8v-2.4h-6.3c-3.4,0-5.1,1-5.1,3.2c0,2.2,1.8,3.7,4.6,3.7C284.2,259.3,286.8,257.6,287.6,254.8z"/>
	<path class="st2" d="M300.5,235.9c0,1.2-0.8,2.1-1.9,2.1s-1.9-0.9-1.9-2.1c0-1.2,0.8-2.1,1.9-2.1S300.5,234.7,300.5,235.9z
		 M297.1,261.8v-20.1h2.9v20.1H297.1z"/>
	<path class="st2" d="M307.5,261.8v-28.3h3v28.3H307.5z"/>
	<path class="st2" d="M349,251.8c0,6-3.9,10.1-9.6,10.1c-3.6,0-6.3-1.6-7.8-4.4v11.7h-3v-27.5h3v4.4c1.5-2.8,4.2-4.5,7.8-4.5
		C345,241.6,349,245.8,349,251.8z M346,251.7c0-4.3-3-7.5-7.2-7.5c-4.2,0-7.2,3.1-7.2,7.5c0,4.4,3,7.5,7.2,7.5
		C343,259.2,346,256.1,346,251.7z"/>
	<path class="st2" d="M372.6,251.7c0,6-4.2,10.2-10.2,10.2s-10.2-4.2-10.2-10.2c0-6,4.2-10.1,10.2-10.1S372.6,245.7,372.6,251.7z
		 M355.2,251.8c0,4.4,3,7.5,7.2,7.5c4.2,0,7.2-3.1,7.2-7.5c0-4.4-3-7.4-7.2-7.4C358.2,244.3,355.2,247.4,355.2,251.8z"/>
	<path class="st2" d="M396.1,261.8l-5.9-16.3l-5.9,16.3h-3.1l-7.5-20.1h3.1l6,17l5.8-17h3.1l5.9,17l5.9-17h3.1l-7.4,20.1H396.1z"/>
	<path class="st2" d="M426.9,252.9h-16.4c0.5,3.9,3.4,6.4,7.3,6.4c2.5,0,4.7-0.9,6.2-2.5l1.6,1.8c-1.9,2.1-4.7,3.4-8.1,3.4
		c-5.9,0-10-4.2-10-10.2c0-6,4.1-10.2,10-10.2C424,241.6,427.2,246.1,426.9,252.9z M424.2,250.5c-0.2-3.9-2.8-6.3-6.7-6.3
		c-3.8,0-6.6,2.5-7,6.3H424.2z"/>
	<path class="st2" d="M435,246.1c1.3-2.9,3.8-4.5,7.2-4.6v3c-4.2-0.1-6.9,2.6-7.2,6.5v10.7h-3v-20.1h3V246.1z"/>
	<path class="st2" d="M463.6,252.9h-16.4c0.5,3.9,3.4,6.4,7.3,6.4c2.5,0,4.7-0.9,6.2-2.5l1.6,1.8c-1.9,2.1-4.7,3.4-8.1,3.4
		c-5.9,0-10-4.2-10-10.2c0-6,4.1-10.2,10-10.2C460.7,241.6,463.9,246.1,463.6,252.9z M460.9,250.5c-0.2-3.9-2.8-6.3-6.7-6.3
		c-3.8,0-6.6,2.5-7,6.3H460.9z"/>
	<path class="st2" d="M487.2,261.8h-3v-4.3c-1.5,2.8-4.2,4.5-7.8,4.5c-5.7,0-9.7-4.2-9.7-10.2c0-6,4-10.2,9.7-10.2
		c3.6,0,6.4,1.6,7.9,4.5v-12.6h3V261.8z M484.2,251.8c0-4.4-3-7.6-7.3-7.6c-4.3,0-7.3,3.2-7.3,7.6c0,4.4,3,7.5,7.3,7.5
		C481.2,259.3,484.2,256.1,484.2,251.8z"/>
	<path class="st2" d="M525.7,251.8c0,6-3.9,10.1-9.6,10.1c-3.6,0-6.3-1.6-7.8-4.4v4.3h-3v-28.3h3V246c1.5-2.8,4.2-4.5,7.8-4.5
		C521.7,241.6,525.7,245.8,525.7,251.8z M522.6,251.7c0-4.3-3-7.5-7.2-7.5c-4.2,0-7.2,3.1-7.2,7.5c0,4.4,3,7.5,7.2,7.5
		C519.7,259.2,522.6,256.1,522.6,251.7z"/>
	<path class="st2" d="M536.7,264.7c-1.3,3.1-3.4,4.7-6,4.7c-1.7,0-3-0.5-4.2-1.5l1.3-2.5c0.9,0.6,1.8,1,2.8,1c1.6,0,2.9-1,3.7-2.8
		l0.8-1.9l-8.3-20h3.1l6.7,16.6l6.4-16.6h3.1L536.7,264.7z"/>
</g>
</svg>
